<svg width="134" height="134" viewBox="0 0 134 134" fill="none" xmlns="http://www.w3.org/2000/svg">
<path d="M95.5973 69.4611C52.238 69.4611 47.7987 90.5291 47.7987 133.887C47.7987 90.5291 43.358 69.4598 0 69.4598C43.3594 69.4598 47.7987 49.1727 47.7987 5.8147C47.7973 49.1741 52.238 69.4611 95.5973 69.4611Z" fill="#FEFEFE"/>
<path d="M128.118 34.1138C105.529 34.1138 103.215 45.0891 103.215 67.6766C103.215 45.0891 100.902 34.1124 78.3145 34.1124C100.902 34.1124 103.215 23.5445 103.215 0.957031C103.215 23.5445 105.529 34.1138 128.118 34.1138Z" fill="#FEFEFE"/>
<path d="M91.4343 102.202C79.5342 102.202 78.3161 107.983 78.3161 119.883C78.3161 107.984 77.098 102.202 65.1992 102.202C77.098 102.202 78.3161 96.6343 78.3161 84.7356C78.3161 96.6357 79.5342 102.202 91.4343 102.202Z" fill="#FEFEFE"/>
<path d="M134 76.0132C126.809 76.0132 126.073 79.5073 126.073 86.6965C126.073 79.5073 125.337 76.0132 118.146 76.0132C125.337 76.0132 126.073 72.6494 126.073 65.4602C126.073 72.6494 126.809 76.0132 134 76.0132Z" fill="#FEFEFE"/>
<path d="M22.4157 48.8017C15.2251 48.8017 14.4891 52.2959 14.4891 59.4851C14.4891 52.2959 13.7531 48.8017 6.5625 48.8017C13.7531 48.8017 14.4891 45.438 14.4891 38.2488C14.4891 45.438 15.2251 48.8017 22.4157 48.8017Z" fill="#FEFEFE"/>
<path d="M112.901 123.229C108.509 123.229 108.059 125.364 108.059 129.756C108.059 125.364 107.61 123.229 103.217 123.229C107.609 123.229 108.059 121.175 108.059 116.783C108.058 121.175 108.508 123.229 112.901 123.229Z" fill="#FEFEFE"/>
</svg>
