<svg width="99" height="98" viewBox="0 0 99 98" fill="none" xmlns="http://www.w3.org/2000/svg">
<path d="M70.396 50.4449C38.467 50.4449 35.198 65.9589 35.198 97.8869C35.198 65.9589 31.928 50.4439 0 50.4439C31.929 50.4439 35.198 35.5049 35.198 3.5769C35.197 35.5059 38.467 50.4449 70.396 50.4449Z" fill="#FEFEFE"/>
<path d="M94.3439 24.416C77.7099 24.416 76.0059 32.498 76.0059 49.131C76.0059 32.498 74.3029 24.415 57.6699 24.415C74.3029 24.415 76.0059 16.633 76.0059 0C76.0059 16.633 77.7099 24.416 94.3439 24.416Z" fill="#FEFEFE"/>
<path d="M67.3307 74.5551C58.5677 74.5551 57.6707 78.8121 57.6707 87.5751C57.6707 78.8131 56.7737 74.5551 48.0117 74.5551C56.7737 74.5551 57.6707 70.4551 57.6707 61.6931C57.6707 70.4561 58.5677 74.5551 67.3307 74.5551Z" fill="#FEFEFE"/>
<path d="M98.676 55.27C93.381 55.27 92.839 57.843 92.839 63.137C92.839 57.843 92.297 55.27 87.002 55.27C92.297 55.27 92.839 52.793 92.839 47.499C92.839 52.793 93.381 55.27 98.676 55.27Z" fill="#FEFEFE"/>
<path d="M16.506 35.2319C11.211 35.2319 10.669 37.8049 10.669 43.0989C10.669 37.8049 10.127 35.2319 4.83203 35.2319C10.127 35.2319 10.669 32.7549 10.669 27.4609C10.669 32.7549 11.211 35.2319 16.506 35.2319Z" fill="#FEFEFE"/>
<path d="M83.1388 90.039C79.9048 90.039 79.5738 91.611 79.5738 94.845C79.5738 91.611 79.2428 90.039 76.0078 90.039C79.2418 90.039 79.5738 88.526 79.5738 85.292C79.5728 88.526 79.9038 90.039 83.1388 90.039Z" fill="#FEFEFE"/>
</svg>
