<svg width="25" height="24" viewBox="0 0 25 24" fill="none" xmlns="http://www.w3.org/2000/svg">
<mask id="mask0_250_16876" style="mask-type:alpha" maskUnits="userSpaceOnUse" x="0" y="0" width="25" height="24">
<rect x="0.5" width="24" height="24" fill="#153339"/>
</mask>
<g mask="url(#mask0_250_16876)">
<path d="M12.5 19C10.15 17.2667 8.39583 15.5833 7.2375 13.95C6.07917 12.3167 5.5 10.7167 5.5 9.15C5.5 7.06667 6.15 5.35417 7.45 4.0125C8.75 2.67083 10.4333 2 12.5 2C14.5667 2 16.25 2.67083 17.55 4.0125C18.85 5.35417 19.5 7.06667 19.5 9.15C19.5 10.7167 18.9208 12.3167 17.7625 13.95C16.6042 15.5833 14.85 17.2667 12.5 19ZM12.5 11C13.05 11 13.5208 10.8042 13.9125 10.4125C14.3042 10.0208 14.5 9.55 14.5 9C14.5 8.45 14.3042 7.97917 13.9125 7.5875C13.5208 7.19583 13.05 7 12.5 7C11.95 7 11.4792 7.19583 11.0875 7.5875C10.6958 7.97917 10.5 8.45 10.5 9C10.5 9.55 10.6958 10.0208 11.0875 10.4125C11.4792 10.8042 11.95 11 12.5 11ZM5.5 22V20H19.5V22H5.5Z" fill="#21474E"/>
</g>
</svg>
