<svg width="68" height="12" viewBox="0 0 68 12" fill="none" xmlns="http://www.w3.org/2000/svg">
<path d="M5.5919 0.576492C5.79116 0.295012 6.20884 0.295012 6.4081 0.576492L8.05348 2.90082C8.11692 2.99044 8.2081 3.05668 8.31293 3.08933L11.032 3.93592C11.3612 4.03844 11.4903 4.43568 11.2842 4.71217L9.58206 6.99528C9.51643 7.08331 9.4816 7.19049 9.48295 7.30028L9.51801 10.1478C9.52226 10.4927 9.18435 10.7382 8.8577 10.6276L6.16035 9.71429C6.05635 9.67908 5.94365 9.67908 5.83965 9.71429L3.1423 10.6276C2.81565 10.7382 2.47774 10.4927 2.48199 10.1478L2.51705 7.30028C2.5184 7.19049 2.48357 7.08331 2.41795 6.99528L0.715829 4.71217C0.5097 4.43568 0.638768 4.03844 0.968046 3.93592L3.68707 3.08933C3.7919 3.05668 3.88308 2.99044 3.94652 2.90082L5.5919 0.576492Z" fill="#00CCF8"/>
<path d="M19.5919 0.576492C19.7912 0.295012 20.2088 0.295012 20.4081 0.576492L22.0535 2.90082C22.1169 2.99044 22.2081 3.05668 22.3129 3.08933L25.032 3.93592C25.3612 4.03844 25.4903 4.43568 25.2842 4.71217L23.5821 6.99528C23.5164 7.08331 23.4816 7.19049 23.483 7.30028L23.518 10.1478C23.5223 10.4927 23.1844 10.7382 22.8577 10.6276L20.1604 9.71429C20.0564 9.67908 19.9436 9.67908 19.8396 9.71429L17.1423 10.6276C16.8156 10.7382 16.4777 10.4927 16.482 10.1478L16.517 7.30028C16.5184 7.19049 16.4836 7.08331 16.4179 6.99528L14.7158 4.71217C14.5097 4.43568 14.6388 4.03844 14.968 3.93592L17.6871 3.08933C17.7919 3.05668 17.8831 2.99044 17.9465 2.90082L19.5919 0.576492Z" fill="#00CCF8"/>
<path d="M33.5919 0.576492C33.7912 0.295012 34.2088 0.295012 34.4081 0.576492L36.0535 2.90082C36.1169 2.99044 36.2081 3.05668 36.3129 3.08933L39.032 3.93592C39.3612 4.03844 39.4903 4.43568 39.2842 4.71217L37.5821 6.99528C37.5164 7.08331 37.4816 7.19049 37.483 7.30028L37.518 10.1478C37.5223 10.4927 37.1844 10.7382 36.8577 10.6276L34.1604 9.71429C34.0564 9.67908 33.9436 9.67908 33.8396 9.71429L31.1423 10.6276C30.8156 10.7382 30.4777 10.4927 30.482 10.1478L30.517 7.30028C30.5184 7.19049 30.4836 7.08331 30.4179 6.99528L28.7158 4.71217C28.5097 4.43568 28.6388 4.03844 28.968 3.93592L31.6871 3.08933C31.7919 3.05668 31.8831 2.99044 31.9465 2.90082L33.5919 0.576492Z" fill="#00CCF8"/>
<path d="M47.5919 0.576492C47.7912 0.295012 48.2088 0.295012 48.4081 0.576492L50.0535 2.90082C50.1169 2.99044 50.2081 3.05668 50.3129 3.08933L53.032 3.93592C53.3612 4.03844 53.4903 4.43568 53.2842 4.71217L51.5821 6.99528C51.5164 7.08331 51.4816 7.19049 51.483 7.30028L51.518 10.1478C51.5223 10.4927 51.1844 10.7382 50.8577 10.6276L48.1604 9.71429C48.0564 9.67908 47.9436 9.67908 47.8396 9.71429L45.1423 10.6276C44.8156 10.7382 44.4777 10.4927 44.482 10.1478L44.517 7.30028C44.5184 7.19049 44.4836 7.08331 44.4179 6.99528L42.7158 4.71217C42.5097 4.43568 42.6388 4.03844 42.968 3.93592L45.6871 3.08933C45.7919 3.05668 45.8831 2.99044 45.9465 2.90082L47.5919 0.576492Z" fill="#00CCF8"/>
<path d="M61.5919 0.576492C61.7912 0.295012 62.2088 0.295012 62.4081 0.576492L64.0535 2.90082C64.1169 2.99044 64.2081 3.05668 64.3129 3.08933L67.032 3.93592C67.3612 4.03844 67.4903 4.43568 67.2842 4.71217L65.5821 6.99528C65.5164 7.08331 65.4816 7.19049 65.483 7.30028L65.518 10.1478C65.5223 10.4927 65.1844 10.7382 64.8577 10.6276L62.1604 9.71429C62.0564 9.67908 61.9436 9.67908 61.8396 9.71429L59.1423 10.6276C58.8156 10.7382 58.4777 10.4927 58.482 10.1478L58.517 7.30028C58.5184 7.19049 58.4836 7.08331 58.4179 6.99528L56.7158 4.71217C56.5097 4.43568 56.6388 4.03844 56.968 3.93592L59.6871 3.08933C59.7919 3.05668 59.8831 2.99044 59.9465 2.90082L61.5919 0.576492Z" fill="#00CCF8"/>
</svg>
