<svg width="48" height="31" viewBox="0 0 48 31" fill="none" xmlns="http://www.w3.org/2000/svg">
<g clip-path="url(#clip0_2005_2625)">
<path fill-rule="evenodd" clip-rule="evenodd" d="M3.79952 0.625C1.97762 0.625 0.5 2.1028 0.5 3.92524V27.3848C0.5 29.2076 1.97714 30.685 3.79952 30.685H44.2005C46.0224 30.685 47.5 29.2072 47.5 27.3848V3.92524C47.5 2.10244 46.0229 0.625 44.2005 0.625L3.79952 0.625Z" fill="white"/>
<path fill-rule="evenodd" clip-rule="evenodd" d="M20.1292 10.3384C20.6594 10.3384 21.1041 10.4454 21.6453 10.7038V12.0688C21.1326 11.5971 20.688 11.3996 20.0999 11.3996C18.9441 11.3996 18.0351 12.3005 18.0351 13.4426C18.0351 14.6471 18.9159 15.4944 20.1573 15.4944C20.716 15.4944 21.1524 15.3072 21.6453 14.8429V16.2087C21.0848 16.4571 20.6306 16.5553 20.0999 16.5553C18.2232 16.5553 16.765 15.1995 16.765 13.4511C16.765 11.7215 18.2621 10.3384 20.1292 10.3384ZM14.3024 10.376C14.9952 10.376 15.629 10.5992 16.159 11.0356L15.5141 11.8305C15.1931 11.4918 14.8895 11.3488 14.5203 11.3488C13.9891 11.3488 13.6023 11.6335 13.6023 12.0082C13.6023 12.3294 13.8194 12.4995 14.5589 12.7571C15.9608 13.2397 16.3763 13.6677 16.3763 14.6127C16.3763 15.7642 15.4778 16.5658 14.1971 16.5658C13.2593 16.5658 12.5775 16.2181 12.0096 15.4335L12.8057 14.7117C13.0895 15.2283 13.563 15.505 14.1509 15.505C14.7007 15.505 15.1077 15.1479 15.1077 14.666C15.1077 14.4162 14.9844 14.202 14.7383 14.0505C14.6143 13.9788 14.3688 13.8719 13.8863 13.7117C12.7288 13.3194 12.3317 12.9001 12.3317 12.0806C12.3317 11.1071 13.1845 10.376 14.3024 10.376ZM28.3858 10.4797H29.732L31.4171 14.4752L33.1238 10.4797H34.4598L31.7302 16.5808H31.067L28.3858 10.4797ZM4.54492 10.4888H6.35392C8.35264 10.4888 9.74596 11.7117 9.74596 13.4673C9.74596 14.3427 9.31972 15.189 8.59888 15.7507C7.9924 16.2247 7.30132 16.4374 6.34444 16.4374H4.54492V10.4888ZM10.313 10.4888H11.5454V16.4374H10.313V10.4888ZM35.0171 10.4888H38.5122V11.4968H36.2487V12.8171H38.4288V13.8246H36.2487V15.4303H38.5122V16.4374H35.0171L35.0171 10.4888ZM39.3285 10.4888H41.1558C42.5772 10.4888 43.3917 11.1314 43.3917 12.2451C43.3917 13.1559 42.8809 13.7535 41.9526 13.9314L43.9415 16.4374H42.4259L40.7201 14.0477H40.5594V16.4374H39.3285V10.4888ZM40.5594 11.4258V13.2273H40.9196C41.7066 13.2273 42.1237 12.9055 42.1237 12.3076C42.1237 11.7287 41.7065 11.4258 40.939 11.4258H40.5594ZM5.77648 11.4967V15.4303H6.1072C6.90358 15.4303 7.40656 15.2866 7.7938 14.9575C8.21998 14.6002 8.47636 14.0296 8.47636 13.4587C8.47636 12.8887 8.21998 12.3352 7.7938 11.9778C7.3867 11.631 6.90358 11.4967 6.1072 11.4967H5.77648Z" fill="#002932"/>
<path fill-rule="evenodd" clip-rule="evenodd" d="M25.6253 10.1251C27.4804 10.1251 28.9841 11.5478 28.9841 13.3052V13.3072C28.9841 15.0648 27.4804 16.4894 25.6253 16.4894C23.7703 16.4894 22.2665 15.0647 22.2665 13.3072V13.3052C22.2665 11.5477 23.7703 10.125 25.6253 10.125L25.6253 10.1251ZM47.4999 17.7966C45.9381 18.9026 34.245 26.807 14 30.625H44.203C46.0235 30.625 47.5 29.139 47.5 27.3063V17.7964L47.4999 17.7966Z" fill="#F47216"/>
</g>
<defs>
<clipPath id="clip0_2005_2625">
<rect width="47" height="30" fill="white" transform="translate(0.5 0.625)"/>
</clipPath>
</defs>
</svg>
