<svg width="14" height="14" viewBox="0 0 14 14" fill="none" xmlns="http://www.w3.org/2000/svg">
<g clip-path="url(#clip0_2005_2574)">
<path d="M9.33371 7.00019V6.99961C9.33371 5.71102 8.28896 4.66627 7.00038 4.66627C5.7118 4.66627 4.66705 5.71102 4.66705 6.99961C4.66705 8.28819 5.7118 9.33294 7.00038 9.33294C7.64438 9.33294 8.22771 9.07161 8.65005 8.64986C9.0718 8.24094 9.33371 7.66869 9.33371 7.03519C9.33371 7.02294 9.33371 7.01069 9.33313 6.99844L9.33371 7.00019ZM10.5937 7.00019C10.5867 8.97127 8.98721 10.5667 7.01496 10.5667C5.03863 10.5667 3.43621 8.96427 3.43621 6.98794C3.43621 5.01161 5.03863 3.40919 7.01496 3.40919C8.00313 3.40919 8.89796 3.80994 9.54546 4.45744C10.1924 5.08744 10.5943 5.96652 10.5943 6.94011C10.5943 6.96111 10.5943 6.98269 10.5937 7.00369V7.00077V7.00019ZM11.5778 3.26336V3.26452C11.5778 3.72827 11.2015 4.10452 10.7378 4.10452C10.274 4.10452 9.8978 3.72827 9.8978 3.26452C9.8978 2.80077 10.274 2.42452 10.7378 2.42452C10.97 2.42452 11.18 2.51844 11.3316 2.67069C11.481 2.81711 11.5737 3.02127 11.5737 3.24702V3.26394L11.5778 3.26336ZM7.00446 1.25669L6.30738 1.25202C5.88505 1.24891 5.56441 1.24891 5.34546 1.25202C5.12652 1.25513 4.8333 1.26427 4.4658 1.27944C4.12455 1.29111 3.8008 1.32494 3.48405 1.37861L3.52663 1.37277C3.27871 1.41361 3.0588 1.47194 2.84821 1.54952L2.8733 1.54136C2.2643 1.78927 1.79005 2.26294 1.54796 2.85619L1.54213 2.87194C1.47271 3.05744 1.41438 3.27736 1.37646 3.50369L1.37355 3.52527C1.32571 3.79886 1.29188 4.12261 1.2808 4.45219L1.28021 4.46444C1.26505 4.83233 1.25591 5.12555 1.2528 5.34411C1.24969 5.56266 1.24969 5.8833 1.2528 6.30602C1.25591 6.72875 1.25746 6.96111 1.25746 7.00311C1.25746 7.04511 1.25591 7.27747 1.2528 7.70019C1.24969 8.12291 1.24969 8.44355 1.2528 8.66211C1.25591 8.88066 1.26505 9.17389 1.28021 9.54177C1.29188 9.88302 1.32571 10.2068 1.37938 10.5235L1.37355 10.4809C1.41438 10.7289 1.47271 10.9488 1.5503 11.1594L1.54213 11.1343C1.79005 11.7433 2.26371 12.2175 2.85696 12.4596L2.87271 12.4654C3.05821 12.5349 3.27813 12.5932 3.50446 12.6311L3.52605 12.634C3.79963 12.6819 4.12338 12.7157 4.45238 12.7268L4.46463 12.7274C4.83252 12.7425 5.12574 12.7517 5.3443 12.7548C5.56285 12.7579 5.88349 12.7579 6.30621 12.7548L6.99921 12.7408L7.6963 12.7454C8.11863 12.7486 8.43927 12.7486 8.65821 12.7454C8.87716 12.7423 9.17038 12.7332 9.53788 12.718C9.87913 12.7064 10.2029 12.6725 10.5196 12.6189L10.477 12.6247C10.725 12.5839 10.9449 12.5255 11.1555 12.4479L11.1304 12.4561C11.7394 12.2082 12.2136 11.7345 12.4557 11.1413L12.4615 11.1255C12.531 10.94 12.5893 10.7201 12.6272 10.4938L12.6301 10.4722C12.678 10.1986 12.7118 9.87486 12.7229 9.54586L12.7235 9.53361C12.7386 9.16572 12.7478 8.8725 12.7509 8.65394C12.754 8.43539 12.754 8.11475 12.7509 7.69202C12.7478 7.2693 12.7462 7.03694 12.7462 6.99494C12.7462 6.95294 12.7478 6.72058 12.7509 6.29786C12.754 5.87513 12.754 5.5545 12.7509 5.33594C12.7478 5.11738 12.7386 4.82416 12.7235 4.45627C12.7118 4.11502 12.678 3.79127 12.6243 3.47452L12.6301 3.51711C12.5893 3.26919 12.531 3.04927 12.4534 2.83869L12.4615 2.86377C12.2136 2.25477 11.74 1.78052 11.1467 1.53844L11.131 1.53261C10.9455 1.46319 10.7255 1.40486 10.4992 1.36694L10.4776 1.36402C10.204 1.31619 9.8803 1.28236 9.5513 1.27127L9.53905 1.27069C9.17116 1.25552 8.87794 1.24638 8.65938 1.24327C8.44082 1.24016 8.12019 1.24016 7.69746 1.24327L7.00446 1.25669ZM14.0004 7.00019C14.0004 8.39164 13.9848 9.35472 13.9537 9.88944C13.9566 9.94836 13.959 10.0172 13.959 10.086C13.959 12.2251 12.2247 13.9594 10.0856 13.9594C10.0162 13.9594 9.94738 13.9576 9.87913 13.9541L9.88846 13.9547C9.35374 13.9858 8.39066 14.0014 6.99921 14.0014C5.60777 14.0014 4.64469 13.9858 4.10996 13.9547C4.05105 13.9576 3.98221 13.9599 3.91338 13.9599C1.7743 13.9599 0.0400469 12.2257 0.0400469 10.0866C0.0400469 10.0172 0.0417969 9.94836 0.0452969 9.88011L0.0447135 9.88944C0.0136024 9.35472 -0.00195312 8.39164 -0.00195312 7.00019C-0.00195312 5.60875 0.0136024 4.64566 0.0447135 4.11094C0.0417969 4.05202 0.0394635 3.98319 0.0394635 3.91436C0.0394635 1.77527 1.77371 0.0410234 3.9128 0.0410234C3.98221 0.0410234 4.05105 0.0427734 4.1193 0.0462734L4.10996 0.0456901C4.64469 0.014579 5.60777 -0.000976562 6.99921 -0.000976562C8.39066 -0.000976562 9.35374 0.014579 9.88846 0.0456901C9.94738 0.0427734 10.0162 0.0404401 10.085 0.0404401C12.2241 0.0404401 13.9584 1.77469 13.9584 3.91377C13.9584 3.98319 13.9566 4.05202 13.9531 4.12027L13.9537 4.11094C13.9848 4.64527 14.0004 5.60836 14.0004 7.00019Z" fill="#00CCF8"/>
</g>
<defs>
<clipPath id="clip0_2005_2574">
<rect width="14" height="14" fill="white"/>
</clipPath>
</defs>
</svg>
