<svg width="15" height="14" viewBox="0 0 15 14" fill="none" xmlns="http://www.w3.org/2000/svg">
<mask id="mask0_2005_2695" style="mask-type:alpha" maskUnits="userSpaceOnUse" x="0" y="0" width="15" height="14">
<rect x="0.5" width="14" height="14" fill="#D9D9D9"/>
</mask>
<g mask="url(#mask0_2005_2695)">
<path d="M7.4987 7.00033C7.81953 7.00033 8.09418 6.88609 8.32266 6.65762C8.55113 6.42915 8.66536 6.15449 8.66536 5.83366C8.66536 5.51283 8.55113 5.23817 8.32266 5.0097C8.09418 4.78123 7.81953 4.66699 7.4987 4.66699C7.17786 4.66699 6.90321 4.78123 6.67474 5.0097C6.44627 5.23817 6.33203 5.51283 6.33203 5.83366C6.33203 6.15449 6.44627 6.42915 6.67474 6.65762C6.90321 6.88609 7.17786 7.00033 7.4987 7.00033ZM7.4987 12.8337C5.93342 11.5017 4.76432 10.2646 3.99141 9.1222C3.21849 7.97984 2.83203 6.92255 2.83203 5.95033C2.83203 4.49199 3.30113 3.33019 4.23932 2.46491C5.17752 1.59963 6.26398 1.16699 7.4987 1.16699C8.73342 1.16699 9.81988 1.59963 10.7581 2.46491C11.6963 3.33019 12.1654 4.49199 12.1654 5.95033C12.1654 6.92255 11.7789 7.97984 11.006 9.1222C10.2331 10.2646 9.06398 11.5017 7.4987 12.8337Z" fill="#00CCF8"/>
</g>
</svg>
