<svg width="15" height="14" viewBox="0 0 15 14" fill="none" xmlns="http://www.w3.org/2000/svg">
<mask id="mask0_2005_2701" style="mask-type:alpha" maskUnits="userSpaceOnUse" x="0" y="0" width="15" height="14">
<rect x="0.5" width="14" height="14" fill="#D9D9D9"/>
</mask>
<g mask="url(#mask0_2005_2701)">
<path d="M2.83464 11.6663C2.5138 11.6663 2.23915 11.5521 2.01068 11.3236C1.7822 11.0952 1.66797 10.8205 1.66797 10.4997V3.49967C1.66797 3.17884 1.7822 2.90419 2.01068 2.67572C2.23915 2.44724 2.5138 2.33301 2.83464 2.33301H12.168C12.4888 2.33301 12.7635 2.44724 12.9919 2.67572C13.2204 2.90419 13.3346 3.17884 13.3346 3.49967V10.4997C13.3346 10.8205 13.2204 11.0952 12.9919 11.3236C12.7635 11.5521 12.4888 11.6663 12.168 11.6663H2.83464ZM7.5013 7.58301L12.168 4.66634V3.49967L7.5013 6.41634L2.83464 3.49967V4.66634L7.5013 7.58301Z" fill="#00CCF8"/>
</g>
</svg>
