<svg width="51" height="31" viewBox="0 0 51 31" fill="none" xmlns="http://www.w3.org/2000/svg">
<g clip-path="url(#clip0_2005_2618)">
<path d="M48.5 0.625H2.5C1.39543 0.625 0.5 1.52043 0.5 2.625V28.625C0.5 29.7296 1.39543 30.625 2.5 30.625H48.5C49.6046 30.625 50.5 29.7296 50.5 28.625V2.625C50.5 1.52043 49.6046 0.625 48.5 0.625Z" fill="#000066"/>
<path fill-rule="evenodd" clip-rule="evenodd" d="M28.5638 15.8674C28.5638 21.2569 24.1953 25.6249 18.8063 25.6249C13.4173 25.6249 9.04883 21.2569 9.04883 15.8674C9.04883 10.4784 13.4173 6.10986 18.8063 6.10986C24.1953 6.10986 28.5638 10.4784 28.5638 15.8674Z" fill="#CC0000"/>
<path fill-rule="evenodd" clip-rule="evenodd" d="M31.9076 6.10987C29.4858 6.10652 27.1499 7.00711 25.3571 8.63537C25.0046 8.95537 24.6756 9.30037 24.3721 9.66837H26.3436C26.6133 9.99674 26.8618 10.3419 27.0876 10.7019H23.6276C23.4211 11.0339 23.2326 11.3784 23.0656 11.7354H27.6491C27.8061 12.0704 27.9441 12.4144 28.0626 12.7684H22.6526C22.5392 13.1072 22.4446 13.4521 22.3691 13.8014H28.3456C28.7143 15.5177 28.6166 17.3015 28.0626 18.9674H22.6526C22.7711 19.3209 22.9091 19.6659 23.0656 20.0009H27.6491C27.4826 20.3564 27.2947 20.7015 27.0866 21.0344H23.6281C23.8534 21.3942 24.1019 21.7389 24.3721 22.0664H26.3431C26.0402 22.4345 25.7106 22.7799 25.3571 23.0999C27.1499 24.7281 29.4859 25.6285 31.9076 25.6249C37.2966 25.6249 41.6651 21.2569 41.6651 15.8674C41.6651 10.4789 37.2966 6.10987 31.9076 6.10987Z" fill="#FF9900"/>
<path fill-rule="evenodd" clip-rule="evenodd" d="M16.5289 16.9361C16.4505 16.9255 16.3715 16.92 16.2924 16.9196C15.6919 16.9196 15.3884 17.1256 15.3884 17.5326C15.3884 17.7826 15.5364 17.9426 15.7679 17.9426C16.1994 17.9426 16.5104 17.5316 16.5289 16.9361ZM17.2989 18.7296H16.4214L16.4414 18.3126C16.1739 18.6421 15.8164 18.7991 15.3314 18.7991C14.7574 18.7991 14.3639 18.3511 14.3639 17.6996C14.3639 16.7196 15.0484 16.1481 16.2234 16.1481C16.3434 16.1481 16.4979 16.1591 16.6554 16.1791C16.6879 16.0461 16.6964 15.9896 16.6964 15.9181C16.6964 15.6516 16.5119 15.5516 16.0174 15.5516C15.6362 15.5512 15.2575 15.6125 14.8959 15.7331L15.0429 14.8281C15.5704 14.6726 15.9189 14.6146 16.3104 14.6146C17.2204 14.6146 17.7024 15.0231 17.7014 15.7946C17.7029 16.0021 17.6684 16.2566 17.6154 16.5926C17.5234 17.1751 17.3259 18.4256 17.2989 18.7296ZM13.9204 18.7296H12.8604L13.4679 14.9251L12.1129 18.7296H11.3904L11.3014 14.9466L10.6634 18.7296H9.67188L10.5004 13.7801H12.0234L12.1154 16.5506L13.0454 13.7806H14.7389L13.9204 18.7296ZM33.2164 16.9361C33.1381 16.9255 33.0593 16.92 32.9804 16.9196C32.3794 16.9196 32.0764 17.1256 32.0764 17.5326C32.0764 17.7826 32.2239 17.9426 32.4559 17.9426C32.8869 17.9426 33.1989 17.5316 33.2164 16.9361ZM33.9874 18.7296H33.1094L33.1294 18.3126C32.8619 18.6421 32.5044 18.7991 32.0194 18.7991C31.4449 18.7991 31.0519 18.3511 31.0519 17.6996C31.0519 16.7196 31.7369 16.1481 32.9119 16.1481C33.0319 16.1481 33.1854 16.1591 33.3429 16.1791C33.3759 16.0461 33.3844 15.9896 33.3844 15.9181C33.3844 15.6516 33.1999 15.5516 32.7049 15.5516C32.3237 15.5513 31.945 15.6126 31.5834 15.7331C31.5949 15.6661 31.7314 14.8281 31.7314 14.8281C32.2584 14.6726 32.6069 14.6146 32.9984 14.6146C33.9084 14.6146 34.3899 15.0231 34.3889 15.7946C34.3909 16.0021 34.3569 16.2566 34.3034 16.5926C34.2119 17.1751 34.0134 18.4256 33.9874 18.7296ZM22.0069 18.6686C21.7169 18.7596 21.4909 18.7991 21.2459 18.7991C20.7044 18.7991 20.4089 18.4881 20.4089 17.9146C20.4014 17.7371 20.4869 17.2691 20.5539 16.8421C20.6154 16.4661 21.0139 14.0951 21.0139 14.0951H22.0664L21.9434 14.7046H22.5794L22.4359 15.6721H21.7979C21.6754 16.4371 21.5009 17.3906 21.4989 17.5171C21.4989 17.7246 21.6099 17.8156 21.8619 17.8156C21.9824 17.8156 22.0759 17.8031 22.1474 17.7776L22.0069 18.6686ZM25.2354 18.6356C24.8734 18.7466 24.5254 18.8006 24.1554 18.7991C22.9764 18.7976 22.3619 18.1821 22.3619 17.0036C22.3619 15.6276 23.1434 14.6146 24.2049 14.6146C25.0729 14.6146 25.6274 15.1816 25.6274 16.0711C25.6274 16.3661 25.5894 16.6546 25.4974 17.0611H23.4004C23.3299 17.6451 23.7034 17.8881 24.3164 17.8881C24.6924 17.8881 25.0329 17.8106 25.4109 17.6351L25.2354 18.6356ZM24.6434 16.2496C24.6494 16.1656 24.7549 15.5311 24.1534 15.5311C23.8184 15.5311 23.5784 15.7866 23.4809 16.2496H24.6434ZM17.9344 15.9771C17.9344 16.4856 18.1814 16.8371 18.7409 17.1006C19.1699 17.3026 19.2369 17.3621 19.2369 17.5451C19.2369 17.7956 19.0469 17.9096 18.6284 17.9096C18.3119 17.9096 18.0184 17.8596 17.6789 17.7501L17.5339 18.6801C17.7739 18.7321 17.9889 18.7806 18.6359 18.7991C19.7534 18.7991 20.2699 18.3736 20.2699 17.4541C20.2699 16.9006 20.0539 16.5761 19.5234 16.3321C19.0794 16.1281 19.0279 16.0826 19.0279 15.8946C19.0279 15.6771 19.2044 15.5661 19.5464 15.5661C19.7544 15.5661 20.0384 15.5881 20.3074 15.6261L20.4584 14.6926C20.1496 14.6463 19.8381 14.6202 19.5259 14.6146C18.3409 14.6146 17.9309 15.2336 17.9344 15.9771ZM30.3874 14.7211C30.6814 14.7211 30.9564 14.7971 31.3339 14.9881L31.5074 13.9141C31.3519 13.8531 30.8059 13.4951 30.3429 13.4951C29.6344 13.4951 29.0344 13.8471 28.6134 14.4271C27.9984 14.2236 27.7454 14.6351 27.4359 15.0451L27.1609 15.1091C27.1852 14.9755 27.1965 14.8399 27.1944 14.7041H26.2204C26.0879 15.9506 25.8524 17.2121 25.6684 18.4591L25.6199 18.7296H26.6799C26.8564 17.5801 26.9534 16.8446 27.0124 16.3461L27.4114 16.1251C27.4714 15.9026 27.6574 15.8281 28.0314 15.8371C27.9811 16.1092 27.956 16.3854 27.9564 16.6621C27.9564 17.9791 28.6679 18.7991 29.8079 18.7991C30.1014 18.7991 30.3539 18.7606 30.7444 18.6541L30.9299 17.5266C30.5789 17.6991 30.2909 17.7801 30.0299 17.7801C29.4149 17.7801 29.0419 17.3251 29.0419 16.5741C29.0419 15.4841 29.5964 14.7211 30.3874 14.7211ZM39.3559 13.7801L39.1209 15.2101C38.8309 14.8291 38.5204 14.5531 38.1094 14.5531C37.5749 14.5531 37.0884 14.9581 36.7694 15.5551C36.4647 15.4884 36.1637 15.4055 35.8679 15.3066V15.3106C35.9029 14.9766 35.9179 14.7741 35.9144 14.7046H34.9404C34.8084 15.9506 34.5724 17.2121 34.3884 18.4586L34.3399 18.7296H35.3999C35.5429 17.8006 35.6524 17.0286 35.7329 16.4171C36.0954 16.0896 36.2769 15.8046 36.6419 15.8231C36.4724 16.2377 36.3853 16.6813 36.3854 17.1291C36.3854 18.1351 36.8939 18.7991 37.6644 18.7991C38.0524 18.7991 38.3504 18.6651 38.6409 18.3551L38.5909 18.7291H39.5934L40.4004 13.7801H39.3559ZM38.0309 17.8001C37.6709 17.8001 37.4879 17.5326 37.4879 17.0061C37.4879 16.2151 37.8294 15.6541 38.3099 15.6541C38.6739 15.6541 38.8709 15.9311 38.8709 16.4426C38.8709 17.2406 38.5244 17.8001 38.0309 17.8001Z" fill="#000066"/>
<path fill-rule="evenodd" clip-rule="evenodd" d="M14.2246 18.4353H13.1646L13.7721 14.6313L12.4171 18.4353H11.6951L11.6061 14.6533L10.9681 18.4353H9.97656L10.8046 13.4868H12.3281L12.3706 16.5503L13.3986 13.4868H15.0436L14.2246 18.4353ZM16.8331 16.6428C16.7547 16.632 16.6757 16.6265 16.5966 16.6263C15.9961 16.6263 15.6921 16.8318 15.6921 17.2383C15.6921 17.4883 15.8406 17.6488 16.0721 17.6488C16.5036 17.6488 16.8146 17.2383 16.8331 16.6428ZM17.6031 18.4353H16.7256L16.7456 18.0188C16.4781 18.3478 16.1206 18.5053 15.6356 18.5053C15.0616 18.5053 14.6681 18.0568 14.6681 17.4053C14.6681 16.4253 15.3526 15.8543 16.5281 15.8543C16.6481 15.8543 16.8016 15.8653 16.9596 15.8858C16.9921 15.7523 17.0006 15.6958 17.0006 15.6238C17.0006 15.3578 16.8166 15.2588 16.3216 15.2588C15.9404 15.2577 15.5617 15.3185 15.2001 15.4388L15.3471 14.5338C15.8746 14.3788 16.2231 14.3208 16.6146 14.3208C17.5246 14.3208 18.0061 14.7293 18.0056 15.5008C18.0071 15.7078 17.9731 15.9638 17.9196 16.2983C17.8276 16.8808 17.6301 18.1318 17.6031 18.4353ZM31.8116 13.6198L31.6381 14.6938C31.2596 14.5038 30.9856 14.4268 30.6916 14.4268C29.9006 14.4268 29.3461 15.1913 29.3461 16.2818C29.3461 17.0323 29.7191 17.4863 30.3346 17.4863C30.5956 17.4863 30.8836 17.4058 31.2346 17.2323L31.0481 18.3603C30.6581 18.4663 30.4056 18.5053 30.1121 18.5053C28.9716 18.5053 28.2611 17.6853 28.2611 16.3688C28.2611 14.5993 29.2431 13.3628 30.6471 13.3628C31.1096 13.3628 31.6561 13.5588 31.8116 13.6198ZM33.5201 16.6428C33.442 16.632 33.3633 16.6265 33.2846 16.6263C32.6846 16.6263 32.3806 16.8318 32.3806 17.2383C32.3806 17.4883 32.5286 17.6488 32.7596 17.6488C33.1911 17.6488 33.5026 17.2383 33.5201 16.6428ZM34.2911 18.4353H33.4136L33.4336 18.0188C33.1656 18.3478 32.8086 18.5053 32.3236 18.5053C31.7486 18.5053 31.3561 18.0568 31.3561 17.4053C31.3561 16.4253 32.0401 15.8543 33.2156 15.8543C33.3356 15.8543 33.4891 15.8653 33.6466 15.8858C33.6796 15.7523 33.6881 15.6958 33.6881 15.6238C33.6881 15.3578 33.5041 15.2588 33.0091 15.2588C32.6281 15.2578 32.2495 15.3185 31.8881 15.4388L32.0351 14.5338C32.5626 14.3788 32.9106 14.3208 33.3026 14.3208C34.2121 14.3208 34.6941 14.7293 34.6926 15.5008C34.6951 15.7078 34.6606 15.9638 34.6076 16.2983C34.5156 16.8808 34.3181 18.1318 34.2911 18.4353ZM22.3111 18.3748C22.0211 18.4658 21.7951 18.5053 21.5501 18.5053C21.0086 18.5053 20.7126 18.1943 20.7126 17.6213C20.7056 17.4428 20.7911 16.9758 20.8586 16.5483C20.9191 16.1718 21.3176 13.8018 21.3176 13.8018H22.3706L22.2476 14.4108H22.7876L22.6441 15.3778H22.1016C21.9796 16.1438 21.8051 17.0968 21.8031 17.2233C21.8031 17.4313 21.9141 17.5218 22.1661 17.5218C22.2866 17.5218 22.3801 17.5098 22.4516 17.4833L22.3111 18.3748ZM25.5396 18.3428C25.1897 18.4515 24.8254 18.5063 24.4591 18.5053C23.2801 18.5048 22.6661 17.8888 22.6661 16.7103C22.6661 15.3338 23.4476 14.3203 24.5081 14.3203C25.3771 14.3203 25.9316 14.8878 25.9316 15.7778C25.9316 16.0728 25.8931 16.3608 25.8016 16.7678H23.7046C23.6336 17.3513 24.0076 17.5948 24.6196 17.5948C24.9966 17.5948 25.3366 17.5168 25.7146 17.3413L25.5396 18.3428ZM24.9481 15.9558C24.9536 15.8713 25.0596 15.2373 24.4581 15.2373C24.1231 15.2373 23.8826 15.4933 23.7851 15.9558H24.9481ZM18.2386 15.6833C18.2386 16.1928 18.4856 16.5433 19.0456 16.8073C19.4741 17.0088 19.5406 17.0688 19.5406 17.2513C19.5406 17.5023 19.3516 17.6153 18.9321 17.6153C18.6093 17.6143 18.2888 17.5609 17.9831 17.4573L17.8381 18.3858C18.0781 18.4388 18.2931 18.4868 18.9396 18.5058C20.0576 18.5058 20.5741 18.0798 20.5741 17.1603C20.5741 16.6068 20.3581 16.2823 19.8271 16.0388C19.3831 15.8343 19.3321 15.7893 19.3321 15.6013C19.3321 15.3838 19.5081 15.2713 19.8506 15.2713C20.0581 15.2713 20.3426 15.2948 20.6116 15.3328L20.7626 14.3993C20.4538 14.353 20.1423 14.3267 19.8301 14.3208C18.6451 14.3208 18.2351 14.9393 18.2386 15.6833ZM39.8981 18.4353H38.8961L38.9456 18.0608C38.6551 18.3713 38.3571 18.5058 37.9691 18.5058C37.1991 18.5058 36.6896 17.8418 36.6896 16.8353C36.6896 15.4963 37.4796 14.3678 38.4136 14.3678C38.8241 14.3678 39.1351 14.5358 39.4251 14.9168L39.6601 13.4868H40.7051L39.8981 18.4353ZM38.3351 17.5053C38.8286 17.5053 39.1751 16.9468 39.1751 16.1493C39.1751 15.6378 38.9776 15.3598 38.6136 15.3598C38.1336 15.3598 37.7921 15.9208 37.7921 16.7123C37.7921 17.2393 37.9751 17.5053 38.3351 17.5053ZM35.2456 14.4108C35.1131 15.6568 34.8771 16.9183 34.6931 18.1648L34.6446 18.4353H35.7046C36.0831 15.9743 36.1746 15.4938 36.7691 15.5538C36.8636 15.0503 37.0396 14.6088 37.1711 14.3868C36.7276 14.2938 36.4796 14.5448 36.1551 15.0213C36.1806 14.8153 36.2276 14.6153 36.2186 14.4108H35.2456ZM26.5256 14.4108C26.3926 15.6568 26.1566 16.9183 25.9726 18.1648L25.9246 18.4353H26.9846C27.3636 15.9743 27.4546 15.4938 28.0481 15.5538C28.1431 15.0503 28.3196 14.6088 28.4506 14.3868C28.0076 14.2938 27.7591 14.5448 27.4351 15.0213C27.4606 14.8153 27.5076 14.6153 27.4986 14.4108H26.5256Z" fill="white"/>
</g>
<defs>
<clipPath id="clip0_2005_2618">
<rect width="50" height="30" fill="white" transform="translate(0.5 0.625)"/>
</clipPath>
</defs>
</svg>
