<svg width="51" height="31" viewBox="0 0 51 31" fill="none" xmlns="http://www.w3.org/2000/svg">
<g clip-path="url(#clip0_2005_2613)">
<path d="M48.5 0.625H2.5C1.39543 0.625 0.5 1.52043 0.5 2.625V28.625C0.5 29.7296 1.39543 30.625 2.5 30.625H48.5C49.6046 30.625 50.5 29.7296 50.5 28.625V2.625C50.5 1.52043 49.6046 0.625 48.5 0.625Z" fill="#26337A"/>
<path fill-rule="evenodd" clip-rule="evenodd" d="M21.2457 20.3983L22.7832 10.8613H25.2407L23.7032 20.3983H21.2457ZM32.6172 11.0948C32.1312 10.9038 31.3672 10.6948 30.4152 10.6948C27.9852 10.6948 26.2752 11.9893 26.2612 13.8423C26.2457 15.2133 27.4812 15.9778 28.4132 16.4333C29.3707 16.9008 29.6927 17.1993 29.6887 17.6173C29.6822 18.2558 28.9242 18.5483 28.2177 18.5483C27.2342 18.5483 26.7112 18.4043 25.9027 18.0483L25.5872 17.8963L25.2432 20.0313C25.8162 20.2968 26.8782 20.5273 27.9812 20.5398C30.5632 20.5398 32.2412 19.2608 32.2607 17.2818C32.2697 16.1948 31.6147 15.3708 30.1967 14.6908C29.3377 14.2483 28.8107 13.9558 28.8167 13.5078C28.8172 13.1118 29.2617 12.6873 30.2247 12.6873C30.8572 12.673 31.485 12.7982 32.0637 13.0538L32.2842 13.1628L32.6172 11.0948ZM35.8892 17.0168C36.0932 16.4688 36.8682 14.3513 36.8682 14.3513C36.8542 14.3763 37.0707 13.7988 37.1947 13.4413L37.3607 14.2638C37.3607 14.2638 37.8322 16.5403 37.9297 17.0168H35.8892ZM38.9212 10.8708H37.0217C36.4327 10.8708 35.9917 11.0398 35.7337 11.6613L32.0842 20.4013H34.6657C34.6657 20.4013 35.0867 19.2258 35.1822 18.9678C35.4637 18.9678 37.9722 18.9728 38.3297 18.9728C38.4032 19.3053 38.6292 20.4018 38.6292 20.4018H40.9097L38.9212 10.8708ZM19.1842 10.8693L16.7792 17.3713L16.5212 16.0493C16.0727 14.5268 14.6777 12.8763 13.1172 12.0493L15.3172 20.3898L17.9182 20.3883L21.7882 10.8693H19.1842Z" fill="white"/>
<path fill-rule="evenodd" clip-rule="evenodd" d="M14.5458 10.8628H10.5833L10.5508 11.0603C13.6343 11.8503 15.6743 13.7573 16.5208 16.0493L15.6603 11.6673C15.5113 11.0628 15.0798 10.8838 14.5463 10.8623" fill="#EC982D"/>
</g>
<defs>
<clipPath id="clip0_2005_2613">
<rect width="50" height="30" fill="white" transform="translate(0.5 0.625)"/>
</clipPath>
</defs>
</svg>
